<svg xmlns="http://www.w3.org/2000/svg" viewBox="0 0 64 64"><path d="M8 30 20 20l12 10v17H8Z" fill="#fff" stroke="#6e86a1" stroke-width="2"/><path d="M13 30v-8l7-6 7 6v8" fill="#eef5fa" stroke="#6e86a1" stroke-width="2"/><path d="M16 47V35h8v12" fill="#fff" stroke="#6e86a1" stroke-width="2"/><path d="M38 46V28" stroke="#4f916d" stroke-width="2.4"/><path d="M38 29c-7 0-10-5-7-10 2-4 7-4 9 0 3-6 9-4 10 1 1 5-4 9-12 9Z" fill="#e9f5ee" stroke="#4f916d" stroke-width="2"/><path d="M5 54c10-5 18-5 28 0 9 5 17 5 26 0" fill="none" stroke="#2f5fb3" stroke-width="2"/></svg>
